<svg xmlns="http://www.w3.org/2000/svg" width="22" height="24" viewBox="0 0 22 24"><g><g><path fill="#b63b75" d="M21.888 13.824c.48.98.1 2.15-.864 2.662l-1.732.919a.677.677 0 0 0-.351.484l-.34 1.931a2.004 2.004 0 0 1-2.263 1.645l-1.94-.275a.677.677 0 0 0-.57.185L12.42 22.74a2.006 2.006 0 0 1-2.798 0l-1.409-1.364a.676.676 0 0 0-.569-.185l-1.94.275A2.003 2.003 0 0 1 3.44 19.82L3.1 17.89a.677.677 0 0 0-.351-.484l-1.732-.92a2.005 2.005 0 0 1-.865-2.661l.861-1.762a.676.676 0 0 0 0-.598l-.86-1.762c-.48-.98-.1-2.15.864-2.661l1.732-.92a.677.677 0 0 0 .351-.483l.339-1.932a2.004 2.004 0 0 1 2.263-1.645l1.941.275c.21.03.417-.038.57-.185L9.621.787a2.003 2.003 0 0 1 2.798 0l1.409 1.364c.152.147.359.214.568.185l1.941-.275a2.004 2.004 0 0 1 2.264 1.645l.339 1.932a.677.677 0 0 0 .351.484l1.732.919a2.005 2.005 0 0 1 .864 2.661l-.86 1.762a.676.676 0 0 0 0 .598zm-1.196.585l-.86-1.762a2 2 0 0 1 0-1.768l.86-1.762a.678.678 0 0 0-.292-.9l-1.732-.92a2 2 0 0 1-1.039-1.43l-.338-1.93a.678.678 0 0 0-.766-.557l-1.941.274a2 2 0 0 1-1.681-.546l-1.409-1.363a.678.678 0 0 0-.946 0l-1.41 1.363a2 2 0 0 1-1.68.546L5.517 3.38a.678.678 0 0 0-.766.556l-.339 1.932a2 2 0 0 1-1.038 1.43l-1.732.919a.678.678 0 0 0-.292.9l.86 1.762a2 2 0 0 1 0 1.768l-.86 1.762a.678.678 0 0 0 .292.9l1.732.92a2 2 0 0 1 1.038 1.43l.34 1.93c.063.365.4.61.765.558l1.94-.275a1.997 1.997 0 0 1 1.68.546l1.41 1.363a.678.678 0 0 0 .947 0l1.41-1.363a2 2 0 0 1 1.68-.546l1.94.275a.678.678 0 0 0 .767-.557l.338-1.931a2 2 0 0 1 1.04-1.43l1.73-.92a.678.678 0 0 0 .293-.9zm-4.807-6.57l-8.787 8.79a.663.663 0 0 1-.941 0 .666.666 0 0 1 0-.942l8.786-8.79a.666.666 0 1 1 .942.942zm-5.086.373a2.444 2.444 0 0 1-2.44 2.441 2.444 2.444 0 0 1-2.441-2.441 2.444 2.444 0 0 1 2.44-2.442A2.444 2.444 0 0 1 10.8 8.212zm-1.331 0a1.11 1.11 0 0 0-1.11-1.11 1.11 1.11 0 0 0 0 2.22c.612 0 1.11-.498 1.11-1.11zm6.656 7.102a2.444 2.444 0 0 1-2.44 2.442 2.444 2.444 0 0 1-2.441-2.442 2.444 2.444 0 0 1 2.44-2.441 2.444 2.444 0 0 1 2.441 2.441zm-1.331 0a1.11 1.11 0 0 0-1.11-1.11 1.11 1.11 0 0 0 0 2.22 1.11 1.11 0 0 0 1.11-1.11z"/></g></g></svg>