<svg xmlns="http://www.w3.org/2000/svg" width="22" height="21" viewBox="0 0 22 21"><g><g><path fill="#b63b75" d="M21.5 6.768v1.23c0 .802-.514 1.486-1.23 1.74v9.416A1.848 1.848 0 0 1 18.423 21H3.576a1.848 1.848 0 0 1-1.846-1.846V9.738A1.849 1.849 0 0 1 .5 7.998v-1.23c0-1.018.828-1.846 1.846-1.846h2.503a3.06 3.06 0 0 1-.617-1.846A3.08 3.08 0 0 1 7.31 0c1.021 0 1.775.366 2.37 1.152.5.657.864 1.576 1.321 2.735.457-1.16.822-2.078 1.32-2.735C12.916.366 13.67 0 14.691 0a3.08 3.08 0 0 1 3.077 3.076 3.06 3.06 0 0 1-.617 1.846h2.503c1.018 0 1.846.828 1.846 1.846zm-9.586-1.846h2.777a1.848 1.848 0 0 0 1.846-1.846 1.848 1.848 0 0 0-1.846-1.846c-1.261 0-1.62.757-2.562 3.148l-.215.544zM5.463 3.076c0 1.018.828 1.846 1.846 1.846h2.777l-.215-.544C8.928 1.987 8.57 1.23 7.309 1.23a1.848 1.848 0 0 0-1.846 1.846zm3.076 6.768H2.961v9.31c0 .34.276.615.615.615H8.54zm0-3.692H2.346a.616.616 0 0 0-.616.616v1.23c0 .34.276.615.616.615h6.193zm3.691 0H9.77V19.77h2.46zm6.809 3.692h-5.578v9.925h4.963c.339 0 .615-.276.615-.615zm1.23-3.076a.616.616 0 0 0-.615-.616h-6.193v2.461h6.193c.34 0 .615-.276.615-.615z"/></g></g></svg>